# xmcd CD database file
#
# Track frame offsets:
#	150
#	18201
#	29343
#	47639
#	63514
#	78756
#	99736
#	113875
#	128089
#	142535
#
# Disc length: 2191 seconds
#
# Revision: 1
# Processed by: cddbd v1.5.2PL0 Copyright (c) Steve Scherf et al.
# Submitted via: CDex 1.51
#
DISCID=74088d0a
DTITLE=John Denver - Some Days Are Diamonds
DYEAR=1981
DGENRE=Oldies
TTITLE0=Some Days Are Diamonds (Some Days Are Stone)
TTITLE1=Gravel On The Ground
TTITLE2=San Francisco Mabel Joy
TTITLE3=Sleepin' Alone
TTITLE4=Easy, On Easy Street
TTITLE5=The Cowboy And The Lady
TTITLE6=Country Love
TTITLE7=Till You Opened My Eyes
TTITLE8=Wild Flowers In A Mason Jar (The Farm)
TTITLE9=Boy From The Country
EXTD=YEAR: 1981
EXTT0=
EXTT1=
EXTT2=
EXTT3=
EXTT4=
EXTT5=
EXTT6=
EXTT7=
EXTT8=
EXTT9=
PLAYORDER=
